<svg id="noun-movies-4608881" xmlns="http://www.w3.org/2000/svg" width="26.865" height="28" viewBox="0 0 26.865 28">
  <path id="Path_713" data-name="Path 713" d="M145.252,69.255h-18.5l19.124-4.64a1.459,1.459,0,0,0,1.072-1.761l-.591-2.443A1.462,1.462,0,0,0,144.94,59.3a1.555,1.555,0,0,0-.344.039L121.684,64.9a1.459,1.459,0,0,0-1.072,1.761l.591,2.443a1.44,1.44,0,0,0,.442.734,2.178,2.178,0,0,0-.7,1.6V85.117a2.18,2.18,0,0,0,2.183,2.183h22.126a2.18,2.18,0,0,0,2.183-2.183V71.438a2.184,2.184,0,0,0-2.183-2.183Zm1.092,2.183v2.437h-.325L142.5,70.347h2.755a1.094,1.094,0,0,1,1.092,1.092Zm-24.309,0a1.114,1.114,0,0,1,.247-.689l3.119,3.119h-3.372Zm4.912,2.437-3.528-3.528h2.268l3.528,3.528Zm3.814,0-3.528-3.528H129.5l3.528,3.528Zm3.814,0-3.528-3.528h2.268l3.528,3.528Zm3.814,0-3.528-3.528h2.268l3.528,3.528Zm3.814,0-3.528-3.528H141.2l-.13.13,3.4,3.4Zm-4.815-8.324-2.151.52,2.3-3.873-.02-.013,2.138-.52Zm3.736-4.243,2.417-.585L141.2,64.628l-2.339.565Zm-7.375,5.127-2.222.539,2.274-3.886,2.261-.546Zm-3.7.9-2.229.539,2.287-3.886h0l2.229-.539Zm-3.71.9-2.274.552,2.177-3.86,2.385-.578Zm18.948-7.557.591,2.443a.33.33,0,0,1-.045.273.344.344,0,0,1-.227.162l-2.931.708L145,60.4a.359.359,0,0,1,.292.273Zm-23.575,5.458a.343.343,0,0,1,.227-.162l2.859-.7-2.17,3.853h-.013a.358.358,0,0,1-.351-.279l-.591-2.443a.316.316,0,0,1,.039-.273Zm23.536,20.079H123.126a1.09,1.09,0,0,1-1.092-1.092V74.96h24.309V85.117a1.094,1.094,0,0,1-1.092,1.092Z" transform="translate(-120.571 -59.3)" fill="#fff"/>
  <path id="Path_714" data-name="Path 714" d="M262.2,343h8.551v1.092H262.2Z" transform="translate(-252.997 -324.565)" fill="#fff"/>
  <path id="Path_715" data-name="Path 715" d="M262.2,393.9h8.551v1.092H262.2Z" transform="translate(-252.997 -372.158)" fill="#fff"/>
</svg>
