<svg xmlns="http://www.w3.org/2000/svg" width="49.035" height="36" viewBox="0 0 49.035 36">
  <g id="noun-no-ads-4084355" transform="translate(-83.997 -84.693)">
    <path id="Path_707" data-name="Path 707" d="M562.2,289.8l.949-2,3.153,1.493-.95,2Z" transform="translate(-434.118 -184.383)" fill="#020d18"/>
    <path id="Path_708" data-name="Path 708" d="M577.5,244.413l.055-2.213,3.485.083-.055,2.212Z" transform="translate(-448.008 -142.987)" fill="#020d18"/>
    <path id="Path_709" data-name="Path 709" d="M564.8,184.846l3.217-1.346.857,2.047-3.226,1.337Z" transform="translate(-436.479 -89.698)" fill="#020d18"/>
    <path id="Path_710" data-name="Path 710" d="M120.937,93.719V86.04a1.377,1.377,0,0,0-.655-1.115,1.536,1.536,0,0,0-1.189-.184l-17.8,7.08h-8.7a5.033,5.033,0,0,0-4.25,2.507l-.636.249A5.515,5.515,0,0,0,84,99.785a5.379,5.379,0,0,0,2.323,4.49,11.355,11.355,0,1,0,21.452,6.3l11.247,4.554.36.1h.12a1.558,1.558,0,0,0,.765-.147,1.322,1.322,0,0,0,.682-1.106V105.86a6.085,6.085,0,0,0-.009-12.141Zm-28.329.774h7.744v4.13a11.387,11.387,0,0,0-9.9,1.115V96.816a2.247,2.247,0,0,1,.6-1.6,2.176,2.176,0,0,1,1.558-.719Zm-5.845,5.273A2.584,2.584,0,0,1,87.8,97.581v4.425a2.537,2.537,0,0,1-1.033-2.185Zm1.475,9.578a8.253,8.253,0,0,1,12.943-6.794L89.7,114.028a8.211,8.211,0,0,1-1.466-4.683Zm8.26,8.26a8.256,8.256,0,0,1-4.683-1.484L103.3,104.652A8.263,8.263,0,0,1,96.5,117.6Zm21.766-5.614-10.519-4.231A11.353,11.353,0,0,0,103,100.015V94.17l15.266-6.112Zm2.673-8.776V96.4a3.38,3.38,0,0,1,1.549.608,2.705,2.705,0,0,1,.424.369,3.422,3.422,0,0,1-1.982,5.808Z" transform="translate(0 0)" fill="#020d18"/>
  </g>
</svg>
