<svg xmlns="http://www.w3.org/2000/svg" width="32" height="32" viewBox="0 0 32 32">
  <path id="Icon_ionic-ios-close-circle" data-name="Icon ionic-ios-close-circle" d="M19.375,3.375a16,16,0,1,0,16,16A16,16,0,0,0,19.375,3.375Zm4.054,21.792-4.054-4.054-4.054,4.054a1.229,1.229,0,1,1-1.738-1.738l4.054-4.054-4.054-4.054a1.229,1.229,0,0,1,1.738-1.738l4.054,4.054,4.054-4.054a1.229,1.229,0,0,1,1.738,1.738l-4.054,4.054,4.054,4.054a1.235,1.235,0,0,1,0,1.738A1.221,1.221,0,0,1,23.429,25.167Z" transform="translate(-3.375 -3.375)" fill="#fff"/>
</svg>
