<svg id="noun-hd-2397522" xmlns="http://www.w3.org/2000/svg" width="41.485" height="34.569" viewBox="0 0 41.485 34.569">
  <path id="Path_716" data-name="Path 716" d="M124.468,58.8H85.094A1.087,1.087,0,0,0,84,59.894V85.1a1.087,1.087,0,0,0,1.094,1.094h17.937v3.719H98.218a.584.584,0,0,0-.57.57V92.8a.584.584,0,0,0,.57.57h13.039a.584.584,0,0,0,.57-.57v-2.32a.584.584,0,0,0-.57-.57h-4.812V86.19h17.937a1.087,1.087,0,0,0,1.094-1.094v-25.2a.971.971,0,0,0-1.008-1.094Zm-2.32,24.015H87.414V62.253h34.694V82.815Z" transform="translate(-84 -58.8)" fill="#020d18"/>
  <path id="Path_717" data-name="Path 717" d="M364.438,175.59h2.711a5.457,5.457,0,0,0,5.422-5.992,5.567,5.567,0,0,0-5.64-4.9h-2.492a.436.436,0,0,0-.438.438v10.054a.436.436,0,0,0,.438.4Zm2.234-8.273h.484a2.8,2.8,0,1,1,0,5.594h-.484Z" transform="translate(-342.126 -156.427)" fill="#020d18"/>
  <path id="Path_718" data-name="Path 718" d="M233.438,175.037h1.8a.436.436,0,0,0,.437-.437v-3.719h2.711V174.6a.436.436,0,0,0,.437.438h1.8a.436.436,0,0,0,.437-.437V164.537a.436.436,0,0,0-.437-.437h-1.8a.436.436,0,0,0-.437.438v3.719h-2.711v-3.719a.436.436,0,0,0-.437-.437h-1.8a.436.436,0,0,0-.437.438V174.6A.469.469,0,0,0,233.438,175.037Z" transform="translate(-221.36 -155.874)" fill="#020d18"/>
</svg>
