<svg xmlns="http://www.w3.org/2000/svg" width="33.602" height="28" viewBox="0 0 33.602 28">
  <g id="noun-hd-2397522" transform="translate(-84 -58.8)">
    <path id="Path_716" data-name="Path 716" d="M116.777,58.8H84.886a.88.88,0,0,0-.886.886V80.1a.88.88,0,0,0,.886.886H99.414V84h-3.9a.473.473,0,0,0-.462.462v1.879a.473.473,0,0,0,.462.462h10.561a.473.473,0,0,0,.462-.462V84.459a.473.473,0,0,0-.462-.462h-3.9V80.985h14.528a.88.88,0,0,0,.886-.886V59.686a.786.786,0,0,0-.816-.886ZM114.9,78.251H86.765V61.6h28.1V78.251Z" fill="#fff"/>
    <path id="Path_717" data-name="Path 717" d="M364.354,173.521h2.2a4.42,4.42,0,0,0,4.391-4.853,4.509,4.509,0,0,0-4.569-3.967h-2.018a.353.353,0,0,0-.354.354V173.2a.353.353,0,0,0,.354.323Zm1.81-6.7h.392a2.265,2.265,0,1,1,0,4.531h-.392Z" transform="translate(-262.283 -99.199)" fill="#fff"/>
    <path id="Path_718" data-name="Path 718" d="M233.354,172.959h1.455a.353.353,0,0,0,.354-.354v-3.012h2.2V172.6a.353.353,0,0,0,.354.354h1.455a.353.353,0,0,0,.354-.354v-8.15a.353.353,0,0,0-.354-.354h-1.455a.353.353,0,0,0-.354.354v3.012h-2.2v-3.012a.353.353,0,0,0-.354-.354h-1.455a.353.353,0,0,0-.354.354v8.15A.38.38,0,0,0,233.354,172.959Z" transform="translate(-139.572 -98.637)" fill="#fff"/>
  </g>
</svg>
