<svg id="noun-movies-4608881" xmlns="http://www.w3.org/2000/svg" width="34.54" height="36" viewBox="0 0 34.54 36">
  <path id="Path_713" data-name="Path 713" d="M152.3,72.1H128.518l24.588-5.965a1.875,1.875,0,0,0,1.379-2.264l-.76-3.141A1.88,1.88,0,0,0,151.9,59.3a2,2,0,0,0-.443.05L122,66.5a1.875,1.875,0,0,0-1.379,2.264l.76,3.141a1.851,1.851,0,0,0,.568.944,2.8,2.8,0,0,0-.9,2.055V92.493a2.8,2.8,0,0,0,2.807,2.807H152.3a2.8,2.8,0,0,0,2.807-2.807V74.906A2.808,2.808,0,0,0,152.3,72.1Zm1.4,2.807v3.133h-.418L148.762,73.5H152.3a1.407,1.407,0,0,1,1.4,1.4Zm-31.255,0a1.432,1.432,0,0,1,.317-.886l4.01,4.01h-4.336Zm6.316,3.133L124.233,73.5h2.916l4.537,4.537Zm4.9,0L129.137,73.5h2.916l4.537,4.537Zm4.9,0L134.041,73.5h2.916l4.537,4.537Zm4.9,0L138.945,73.5h2.916l4.537,4.537Zm4.9,0L143.849,73.5h3.25l-.167.167,4.369,4.369Zm-6.191-10.7-2.765.668,2.958-4.979-.025-.017,2.749-.668Zm4.8-5.456,3.108-.752-3.016,5.021-3.008.727Zm-9.482,6.592-2.857.693,2.924-5,2.907-.7Zm-4.754,1.153-2.866.693,2.941-5h0l2.866-.693Zm-4.77,1.153-2.924.71,2.8-4.963,3.066-.744Zm24.362-9.716.76,3.141a.425.425,0,0,1-.058.351.442.442,0,0,1-.292.209L149,65.675l2.983-4.963a.462.462,0,0,1,.376.351Zm-30.311,7.018a.441.441,0,0,1,.292-.209l3.676-.894-2.79,4.954H123.2a.46.46,0,0,1-.451-.359l-.76-3.141a.406.406,0,0,1,.05-.351ZM152.3,93.9H123.857a1.4,1.4,0,0,1-1.4-1.4V79.435h31.255V92.493a1.407,1.407,0,0,1-1.4,1.4Z" transform="translate(-120.571 -59.3)" fill="#020d18"/>
  <path id="Path_714" data-name="Path 714" d="M262.2,343h10.995v1.4H262.2Z" transform="translate(-250.367 -319.298)" fill="#020d18"/>
  <path id="Path_715" data-name="Path 715" d="M262.2,393.9h10.995v1.4H262.2Z" transform="translate(-250.367 -365.946)" fill="#020d18"/>
</svg>
