<svg id="noun-mobile-5740803" xmlns="http://www.w3.org/2000/svg" width="11.126" height="20" viewBox="0 0 11.126 20">
  <path id="Path_703" data-name="Path 703" d="M297.231,168.3H291.5a2.7,2.7,0,0,0-2.7,2.7V185.6a2.7,2.7,0,0,0,2.7,2.7h5.735a2.7,2.7,0,0,0,2.7-2.7V171A2.693,2.693,0,0,0,297.231,168.3Zm1.692,17.3a1.685,1.685,0,0,1-1.683,1.682H291.5a1.685,1.685,0,0,1-1.683-1.682V171a1.679,1.679,0,0,1,1.683-1.682h5.726A1.685,1.685,0,0,1,298.913,171v14.6Z" transform="translate(-288.8 -168.3)" fill="#020d18"/>
  <path id="Path_704" data-name="Path 704" d="M327.907,184.913h2.867a.507.507,0,0,0,0-1.013h-2.867a.507.507,0,0,0,0,1.013Z" transform="translate(-323.908 -182.489)" fill="#020d18"/>
  <path id="Path_705" data-name="Path 705" d="M339.726,266.11a.217.217,0,0,0-.326.19V268a.22.22,0,0,0,.326.19l1.474-.85a.213.213,0,0,0,0-.371Z" transform="translate(-334.473 -257.236)" fill="#020d18"/>
  <path id="Path_706" data-name="Path 706" d="M322.433,248.2h-3.1a1.232,1.232,0,0,0-1.23,1.23v3.1a1.231,1.231,0,0,0,1.23,1.23h3.1a1.232,1.232,0,0,0,1.23-1.23v-3.1a1.232,1.232,0,0,0-1.23-1.23Zm.217,4.333a.22.22,0,0,1-.217.217h-3.1a.22.22,0,0,1-.217-.217v-3.1a.22.22,0,0,1,.217-.217h3.1a.22.22,0,0,1,.217.217Z" transform="translate(-315.1 -240.973)" fill="#020d18"/>
</svg>
