<svg id="noun-mobile-5740803" xmlns="http://www.w3.org/2000/svg" width="27.816" height="50" viewBox="0 0 27.816 50">
  <path id="Path_703" data-name="Path 703" d="M309.876,168.3H295.539a6.741,6.741,0,0,0-6.739,6.739v36.522a6.741,6.741,0,0,0,6.739,6.739h14.337a6.741,6.741,0,0,0,6.739-6.739v-36.5A6.732,6.732,0,0,0,309.876,168.3Zm4.229,43.261a4.213,4.213,0,0,1-4.206,4.206H295.562a4.213,4.213,0,0,1-4.206-4.206v-36.5a4.2,4.2,0,0,1,4.206-4.206h14.315a4.213,4.213,0,0,1,4.206,4.206v36.5Z" transform="translate(-288.8 -168.3)" fill="#fff"/>
  <path id="Path_704" data-name="Path 704" d="M328.666,186.433h7.169a1.266,1.266,0,0,0,0-2.533h-7.169a1.266,1.266,0,0,0,0,2.533Z" transform="translate(-318.671 -180.372)" fill="#fff"/>
  <path id="Path_705" data-name="Path 705" d="M340.214,266.153a.543.543,0,0,0-.814.475v4.252a.55.55,0,0,0,.814.475l3.686-2.126a.531.531,0,0,0,0-.927Z" transform="translate(-327.083 -243.969)" fill="#fff"/>
  <path id="Path_706" data-name="Path 706" d="M328.932,248.2h-7.757a3.079,3.079,0,0,0-3.075,3.076v7.757a3.079,3.079,0,0,0,3.075,3.076h7.757a3.079,3.079,0,0,0,3.076-3.076v-7.757a3.079,3.079,0,0,0-3.076-3.076Zm.543,10.832a.55.55,0,0,1-.543.543h-7.757a.55.55,0,0,1-.543-.543v-7.757a.55.55,0,0,1,.543-.543h7.757a.55.55,0,0,1,.543.543Z" transform="translate(-310.6 -230.131)" fill="#fff"/>
</svg>
