<svg xmlns="http://www.w3.org/2000/svg" width="43.29" height="29" viewBox="0 0 43.29 29">
  <path id="noun-movies-4064699" d="M102.971,113.148a4.98,4.98,0,0,0-4.98,4.98v18.039a4.981,4.981,0,0,0,4.98,4.981h24.688a4.981,4.981,0,0,0,4.98-4.981v-4.212l5.258,5.933a1.363,1.363,0,0,0,2.383-.9V117.31a1.365,1.365,0,0,0-2.383-.9l-5.258,5.932v-4.208a4.98,4.98,0,0,0-4.98-4.98Zm0,.94h24.688a4.021,4.021,0,0,1,4.04,4.04v5.407a.459.459,0,0,0,0,.095v7.065q0,.02,0,.04v5.432a4.021,4.021,0,0,1-4.04,4.04H102.972a4.021,4.021,0,0,1-4.04-4.04V118.128a4.021,4.021,0,0,1,4.04-4.04Zm35.976,2.8a.513.513,0,0,1,.119.03.391.391,0,0,1,.273.4v19.676a.423.423,0,0,1-.739.281l-5.962-6.728v-6.781l5.962-6.728a.383.383,0,0,1,.346-.145Z" transform="translate(-97.491 -112.648)" fill="#fff" stroke="#fff" stroke-width="1"/>
</svg>
