<svg xmlns="http://www.w3.org/2000/svg" width="38.138" height="28" viewBox="0 0 38.138 28">
  <g id="noun-no-ads-4084355" transform="translate(-83.997 -84.693)">
    <path id="Path_707" data-name="Path 707" d="M562.2,289.356l.738-1.556,2.452,1.162-.739,1.556Z" transform="translate(-443.915 -188.544)" fill="#fff"/>
    <path id="Path_708" data-name="Path 708" d="M577.5,243.921l.043-1.721,2.71.065-.043,1.721Z" transform="translate(-458.118 -146.214)" fill="#fff"/>
    <path id="Path_709" data-name="Path 709" d="M564.8,184.547l2.5-1.047.667,1.592-2.509,1.04Z" transform="translate(-446.329 -91.722)" fill="#fff"/>
    <path id="Path_710" data-name="Path 710" d="M112.728,91.713V85.74a1.071,1.071,0,0,0-.509-.868,1.2,1.2,0,0,0-.925-.143L97.448,90.236H90.68a3.914,3.914,0,0,0-3.305,1.95l-.495.194A4.289,4.289,0,0,0,84,96.431,4.183,4.183,0,0,0,85.8,99.923a8.832,8.832,0,1,0,16.685,4.9l8.748,3.542.28.079h.093a1.212,1.212,0,0,0,.6-.115,1.028,1.028,0,0,0,.531-.86v-6.31a4.733,4.733,0,0,0-.007-9.443Zm-22.034.6h6.023v3.212a8.857,8.857,0,0,0-7.7.868V94.122a1.747,1.747,0,0,1,.466-1.248,1.693,1.693,0,0,1,1.212-.559Zm-4.546,4.1a2.01,2.01,0,0,1,.8-1.7v3.442a1.973,1.973,0,0,1-.8-1.7Zm1.147,7.45a6.419,6.419,0,0,1,10.067-5.284l-8.927,8.927a6.387,6.387,0,0,1-1.14-3.642Zm6.424,6.424a6.421,6.421,0,0,1-3.642-1.154l8.934-8.92a6.427,6.427,0,0,1-5.292,10.074Zm16.929-4.367-8.181-3.291a8.83,8.83,0,0,0-3.693-6.023V92.064l11.874-4.754Zm2.079-6.826V93.8a2.629,2.629,0,0,1,1.2.473,2.1,2.1,0,0,1,.33.287,2.661,2.661,0,0,1-1.542,4.517Z" transform="translate(0 0)" fill="#fff"/>
  </g>
</svg>
